<svg width="16" height="16" viewBox="0 0 16 16" fill="none" xmlns="http://www.w3.org/2000/svg">
<path d="M14.9733 1.77679H1.02456C0.870413 1.77679 0.722583 1.84235 0.613588 1.95904C0.504592 2.07573 0.443359 2.23399 0.443359 2.39902V12.9768C0.443359 13.3068 0.565825 13.6234 0.783816 13.8567C1.00181 14.0901 1.29747 14.2212 1.60575 14.2212H14.3921C14.7004 14.2212 14.996 14.0901 15.214 13.8567C15.432 13.6234 15.5545 13.3068 15.5545 12.9768V2.39902C15.5545 2.23399 15.4932 2.07573 15.3842 1.95904C15.2752 1.84235 15.1274 1.77679 14.9733 1.77679ZM5.87101 7.99902L1.60575 12.1842V3.81379L5.87101 7.99902ZM6.73118 8.84291L7.60297 9.70235C7.7102 9.80773 7.85045 9.8662 7.99601 9.8662C8.14156 9.8662 8.28182 9.80773 8.38904 9.70235L9.26084 8.84291L13.4745 12.9768H2.51896L6.73118 8.84291ZM10.1268 7.99902L14.3921 3.81302V12.185L10.1268 7.99902Z" fill="#1F262E" fill-opacity="0.6"/>
</svg>
