<svg width="16" height="16" viewBox="0 0 16 16" fill="none" xmlns="http://www.w3.org/2000/svg">
<path d="M3.43795 1.00217C3.35615 0.995398 3.27288 1.00217 3.18956 1.02255C2.86608 1.10147 2.44644 1.2931 2.00622 1.7333C0.628168 3.11131 -0.102962 5.43435 5.07858 10.6164C10.2601 15.7984 12.5832 15.0673 13.9619 13.6887C14.4035 13.2471 14.5951 12.8269 14.674 12.5028C14.7542 12.1709 14.6108 11.8292 14.3161 11.657C13.5804 11.2266 11.9927 10.296 11.2564 9.86488C11.0145 9.72336 10.7175 9.72588 10.4769 9.8687L9.25914 10.5947C8.98653 10.7571 8.64595 10.7388 8.39552 10.5438C7.96312 10.206 7.26777 9.63705 6.6619 9.03185C6.05602 8.426 5.48709 7.73067 5.14992 7.29829C4.95491 7.04851 4.93592 6.70729 5.09896 6.43469L5.82502 5.21699C5.9685 4.97634 5.96909 4.67686 5.82757 4.43491L4.03918 1.38175C3.90907 1.16067 3.68334 1.0225 3.43795 1.00217Z" fill="#1F262E" fill-opacity="0.6"/>
</svg>
