<svg width="26" height="26" viewBox="0 0 26 26" fill="none" xmlns="http://www.w3.org/2000/svg">
<path d="M12.9997 2.78516C10.784 2.78768 8.65983 3.67248 7.0931 5.24543C5.52638 6.81839 4.64509 8.95105 4.64258 11.1755C4.64258 18.3551 12.24 23.7773 12.5638 24.0043C12.6916 24.0941 12.8438 24.1423 12.9997 24.1423C13.1557 24.1423 13.3079 24.0941 13.4356 24.0043C13.7595 23.7773 21.3569 18.3551 21.3569 11.1755C21.3544 8.95105 20.4731 6.81839 18.9063 5.24543C17.3396 3.67248 15.2154 2.78768 12.9997 2.78516ZM12.9997 8.1245C13.6008 8.1245 14.1883 8.30344 14.6881 8.63869C15.1878 8.97394 15.5773 9.45045 15.8074 10.008C16.0374 10.5655 16.0975 11.1789 15.9803 11.7708C15.863 12.3626 15.5736 12.9063 15.1486 13.333C14.7236 13.7597 14.1821 14.0502 13.5926 14.168C13.0031 14.2857 12.3921 14.2253 11.8368 13.9944C11.2815 13.7634 10.8068 13.3724 10.4729 12.8706C10.139 12.3689 9.96076 11.779 9.96076 11.1755C9.96076 10.3664 10.2809 9.59031 10.8509 9.01813C11.4208 8.44594 12.1937 8.1245 12.9997 8.1245Z" fill="currentColor"/>
</svg>
