<svg width="24" height="25" viewBox="0 0 24 25" fill="none" xmlns="http://www.w3.org/2000/svg">
<path d="M14.3991 2.5C13.5151 2.5 12.7991 3.24583 12.7991 4.16667V7.5C12.7991 8.42083 13.5151 9.16667 14.3991 9.16667V10.8333L16.7991 9.16667H19.9991C20.8831 9.16667 21.5991 8.42083 21.5991 7.5V4.16667C21.5991 3.24583 20.8831 2.5 19.9991 2.5H14.3991ZM6.18976 4.16992C6.08942 4.16126 5.98727 4.16992 5.88507 4.19596C5.48827 4.2968 4.97351 4.54167 4.43351 5.10417C2.74311 6.865 1.84626 9.83341 8.20226 16.4551C14.5583 23.0767 17.4079 22.1425 19.0991 20.3809C19.6407 19.8167 19.8758 19.2797 19.9726 18.8656C20.071 18.4414 19.8951 18.0048 19.5335 17.7848C18.6311 17.2348 16.6836 16.0456 15.7804 15.4948C15.4836 15.314 15.1193 15.3172 14.8241 15.4997L13.3304 16.4274C12.996 16.6349 12.5782 16.6115 12.271 16.3623C11.7406 15.9306 10.8876 15.2037 10.1444 14.4303C9.40124 13.6562 8.70336 12.7677 8.28976 12.2152C8.05056 11.896 8.02726 11.46 8.22726 11.1117L9.11788 9.55567C9.29388 9.24816 9.29461 8.86548 9.12101 8.55632L6.92726 4.65495C6.76766 4.37245 6.49077 4.1959 6.18976 4.16992Z" fill="currentColor"/>
</svg>
