<svg width="70" height="70" viewBox="0 0 70 70" fill="none" xmlns="http://www.w3.org/2000/svg">
<path d="M13.995 53.6667H9.32838C9.16505 53.6667 9.00172 53.6434 8.86172 53.6201C6.37797 53.3554 4.85343 51.0302 4.48957 50.4262C4.4327 50.3317 4.38193 50.2318 4.32639 50.1365C3.72237 49.1011 2.39375 48.6991 1.27838 49.2567C0.13505 49.8167 -0.331617 51.2167 0.251716 52.3834C0.368156 52.6163 3.18075 58.1485 9.03747 58.3092C9.05985 58.3098 9.07846 58.313 9.10026 58.3181C9.22128 58.3463 9.32838 58.4342 9.32838 58.5584V60.6667C9.32838 61.9501 10.3784 63.0001 11.6617 63.0001H13.5808C13.8461 63.0001 14.1004 62.8947 14.2879 62.7072L15.8187 61.1764C16.1231 60.872 16.1985 60.4071 16.006 60.0221L15.8853 59.7806C15.5529 59.1157 16.0364 58.3334 16.7797 58.3334H51.3284C52.6117 58.3334 53.6617 57.2834 53.6617 56.0001C53.6617 54.7167 52.6117 53.6667 51.3284 53.6667H16.3284M58.3284 37.3334H54.6617C54.1094 37.3334 53.6617 36.8857 53.6617 36.3334V21.0001C53.6617 18.4334 53.6617 16.3334 48.995 14.0001L32.2884 5.64675C31.005 4.99341 29.5817 4.66675 28.135 4.66675H6.99505C4.42838 4.66675 2.32838 6.76675 2.32838 9.33341V37.3334C2.32838 39.9001 4.42838 42.0001 6.99505 42.0001H8.32838C8.88067 42.0001 9.32838 42.4478 9.32838 43.0001V48.0001C9.32838 48.5524 9.7761 49.0001 10.3284 49.0001H13.5808C13.8461 49.0001 14.1004 48.8947 14.2879 48.7072L15.8187 47.1764C16.1231 46.872 16.1985 46.4071 16.006 46.0221L14.7187 43.4473C14.3862 42.7824 14.8697 42.0001 15.6131 42.0001H18.0882C18.4434 42.0001 18.772 42.1885 18.9513 42.4951L21.8867 47.5123C21.9299 47.5861 21.9819 47.6544 22.044 47.7132C22.92 48.5431 24.0708 49.0001 25.265 49.0001H48.995C51.5617 49.0001 53.6617 46.9001 53.6617 44.3334V43.0001C53.6617 42.4478 54.1094 42.0001 54.6617 42.0001H58.3284C59.6164 42.0001 60.6617 40.9571 60.6617 39.6667C60.6617 38.3764 59.6164 37.3334 58.3284 37.3334ZM37.3284 39.6667C37.3284 40.9501 36.2784 42.0001 34.995 42.0001C33.7117 42.0001 32.6617 40.9501 32.6617 39.6667V37.3334C32.6617 36.0501 33.7117 35.0001 34.995 35.0001C36.2784 35.0001 37.3284 36.0501 37.3284 37.3334V39.6667ZM46.6617 39.6667C46.6617 40.9501 45.6117 42.0001 44.3284 42.0001C43.0451 42.0001 41.995 40.9501 41.995 39.6667V37.3334C41.995 36.0501 43.0451 35.0001 44.3284 35.0001C45.6117 35.0001 46.6617 36.0501 46.6617 37.3334V39.6667ZM43.675 30.3334H24.6817C22.6517 30.3334 20.995 28.6767 20.995 26.6467V22.3534C20.995 20.3234 22.6517 18.6667 24.6817 18.6667H32.405C34.1084 18.6667 35.765 19.1334 37.2117 19.9967L45.215 24.8034C46.1017 25.3401 46.6617 26.2967 46.6617 27.3467C46.6617 29.0034 45.3317 30.3334 43.675 30.3334Z" fill="url(#paint0_radial_13652_362)"/>
<defs>
<radialGradient id="paint0_radial_13652_362" cx="0" cy="0" r="1" gradientTransform="matrix(32.4815 -60.0961 118.571 59.3193 19.4889 65.0833)" gradientUnits="userSpaceOnUse">
<stop stop-color="#FF6118"/>
<stop offset="0.078443" stop-color="#FF8718"/>
<stop offset="0.451923" stop-color="#777777"/>
<stop offset="1" stop-color="#DADADA"/>
</radialGradient>
</defs>
</svg>
