<svg width="220" height="47" viewBox="0 0 220 47" fill="none" xmlns="http://www.w3.org/2000/svg">
<path d="M24.3549 0H24.4499C24.9595 0.315536 25.8398 0.752856 26.4002 1.05632L30.1737 3.09964C29.6522 4.05204 28.8943 5.23285 28.3217 6.17741L24.7572 12.0464L13.7001 30.2087C11.1645 30.1788 8.49258 30.1922 5.95561 30.2096L16.7362 12.505C19.2635 8.35348 21.783 4.12134 24.3549 0Z" fill="#1F262E"/>
<path d="M61.058 18.3551C62.9771 19.3909 65.1258 20.5216 67 21.6038V21.6842C66.7095 22.1089 66.3873 22.6881 66.1134 23.138L58.9764 34.8519L50.9897 34.8488C52.0667 33.0303 53.2149 31.199 54.321 29.391L61.058 18.3551Z" fill="#FF8300"/>
<path d="M3.53535 32.9646C5.59984 31.7348 8.33616 31.5353 10.6855 32.0193C11.0901 32.1029 11.5969 32.2482 11.9627 32.426C11.7636 33.2935 11.5613 34.2638 11.3335 35.116C7.79363 33.817 4.04544 34.7491 3.60355 38.7578C3.37111 40.8667 4.0779 43.1751 6.40699 44.0047C7.89859 44.519 9.85418 44.4089 11.3018 43.7841L11.3342 43.77C11.5083 44.5753 11.6971 45.6347 11.8268 46.4544C10.918 46.8271 10.7856 46.7702 9.92578 47H6.08925C4.88564 46.7268 4.12662 46.522 3.08187 45.8504C1.58168 44.8856 0.679971 43.452 0.250513 41.8144C0.123533 41.3303 0.0938864 40.8465 0 40.356V38.7713L0.00925662 38.7349C0.130297 38.2466 0.163856 37.7561 0.298697 37.2503C0.76791 35.4902 1.89184 33.9431 3.53535 32.9646Z" fill="#FF8300"/>
<path d="M35.211 47C34.7618 46.896 34.2838 46.7947 33.8504 46.6502C32.3504 46.1594 31.0831 45.1907 30.271 43.9132C29.0515 42.0173 28.8577 39.4439 29.4156 37.3179C29.8842 35.5318 31.0376 33.8813 32.742 32.9101C34.8734 31.6953 37.6194 31.5295 40.0086 32.0662C40.3093 32.1338 40.8075 32.2898 41.0764 32.4217C40.9554 33.1022 40.6488 34.4471 40.4591 35.1169C38.79 34.5003 37.1055 34.3348 35.3962 34.9639C31.7789 36.2956 31.7603 42.6629 35.4132 43.9695C37.0875 44.5707 38.7995 44.3706 40.4512 43.7733C40.6309 44.6433 40.798 45.5707 40.9573 46.4471C40.0619 46.8421 39.8562 46.7638 39.0134 47H35.211Z" fill="#FF8300"/>
<path d="M29.7848 8.28629L38.8607 13.211C38.4239 14.0128 37.732 15.0737 37.2377 15.8752L30.4842 26.9571C29.8424 28.0051 29.1618 29.1846 28.4943 30.2077L25.5696 30.2053L16.4402 30.2076C16.6627 29.7543 17.2574 28.8389 17.5422 28.3748L26.6552 13.418L28.6864 10.098C29.0382 9.5242 29.4673 8.86721 29.7848 8.28629Z" fill="#1F262E"/>
<path d="M40.9259 14.311L48.8063 18.5872C48.1562 19.5974 47.5049 20.7023 46.8807 21.7298L43.6527 27.0218C43.0164 28.0889 42.3706 29.1509 41.7154 30.2078C40.833 30.1985 39.9366 30.2057 39.0533 30.2051L31.229 30.2068C31.5911 29.5583 32.0657 28.8273 32.4603 28.1857L40.9259 14.311Z" fill="#1F262E"/>
<path d="M23.7214 32.0252C24.7574 32.0031 25.9042 32.0108 26.9411 32.0243L26.9393 46.8803L26.304 46.881H23.2368L20.64 42.4031C20.0521 41.3921 19.4328 40.3505 18.8804 39.3239C18.2946 38.2178 17.7388 37.0982 17.2135 35.9657C17.1424 36.9635 17.2679 38.4326 17.2776 39.484L17.2777 46.8779L14.0633 46.8794L14.0637 32.0243L14.4756 32.0221C15.7121 32.0154 16.9486 32.0154 18.1851 32.0221C19.5649 34.2769 20.9093 36.5884 22.222 38.8787C22.7252 39.7566 23.1444 40.7606 23.5705 41.6773C23.6914 41.9371 23.7889 42.1984 23.9357 42.449C23.8555 40.8979 23.7343 39.3665 23.7254 37.8114C23.7144 35.884 23.7199 33.9526 23.7214 32.0252Z" fill="#FF8300"/>
<path d="M10.2769 13.3733C10.5128 13.4748 10.9653 13.7358 11.2016 13.8643L13.2436 14.9843C12.9348 15.5402 12.5319 16.1697 12.1974 16.7198L7.01521 25.2252C6.34511 26.3292 5.67851 27.4713 4.98607 28.5596C4.03371 27.9954 2.97061 27.4746 1.99709 26.9134C2.28418 26.4875 2.6235 25.8877 2.89628 25.4398L4.52489 22.7834L10.2769 13.3733Z" fill="#1F262E"/>
<path d="M50.8133 19.6656C52.6146 20.6906 54.533 21.6451 56.317 22.6914C54.9037 25.0473 53.4178 27.4037 52.0235 29.7619C50.197 28.7559 48.3198 27.7578 46.5097 26.7356C47.0482 25.7414 47.8621 24.4816 48.467 23.5043L50.8133 19.6656Z" fill="#FF8300"/>
<path d="M42.1989 44.7907L63.383 44.7914C63.3788 45.3629 63.3804 45.9345 63.3873 46.5061C63.0497 46.5462 61.7352 46.5184 61.341 46.5184L42.1979 46.5223L42.1989 44.7907Z" fill="#1F262E"/>
<path fill-rule="evenodd" clip-rule="evenodd" d="M49.2169 36.8234C50.9668 36.7512 52.1534 37.8867 52.2682 39.4886C52.3941 41.2459 51.4683 42.6938 49.4865 42.8248C45.5915 43.057 45.2561 37.0676 49.2169 36.8234ZM50.6884 38.9999C50.4656 38.2564 49.9418 37.8212 49.0945 37.8882C47.8707 38.1979 47.714 39.644 47.9874 40.6223C48.1942 41.3621 48.7674 41.8282 49.6095 41.7382C50.7983 41.3992 50.9805 39.9748 50.6884 38.9999Z" fill="#1F262E"/>
<path d="M47.4045 28.9636C47.5605 29.0301 47.7424 29.1422 47.8942 29.2263C49.0045 29.843 50.129 30.4417 51.2347 31.065C50.4538 32.3055 49.6883 33.598 48.9241 34.8513L43.8304 34.8495C44.1556 34.243 44.6545 33.4795 45.0248 32.8709L47.4045 28.9636Z" fill="#FF8300"/>
<path fill-rule="evenodd" clip-rule="evenodd" d="M42.5224 36.8846C43.5268 36.8298 45.137 36.7894 45.6156 37.7934C46.0498 38.7034 45.6317 39.5482 44.7363 39.9971C45.4455 40.4423 45.4969 41.0173 45.7085 41.7406C45.807 42.0766 45.9143 42.4062 46.0291 42.7375C45.543 42.7434 45.0401 42.7382 44.553 42.7385C44.4461 42.5038 44.3774 42.2727 44.2992 42.0289C44.242 41.7966 44.1749 41.5439 44.1196 41.3141C43.9262 40.5127 43.5556 40.4546 42.7806 40.4439L42.7766 42.7363C42.3154 42.7437 41.837 42.737 41.3745 42.736C41.3496 40.8447 41.3693 38.8769 41.381 36.9822C41.7605 36.9418 42.141 36.909 42.5224 36.8846ZM44.3679 38.5342C44.2897 37.7588 43.3664 37.8246 42.7776 37.8586C42.7785 38.3873 42.774 38.928 42.7831 39.4558C43.2797 39.4665 43.7149 39.5167 44.1235 39.2193C44.3227 38.9916 44.3983 38.835 44.3679 38.5342Z" fill="#1F262E"/>
<path d="M38.2672 36.8546C38.8757 36.8145 39.6 36.9311 40.1611 37.149C40.0597 37.5079 39.9684 37.8696 39.8876 38.2331C38.8744 37.8644 37.4762 37.7377 36.7895 38.719C36.2274 39.5222 36.3904 40.9301 37.311 41.457C37.8256 41.7517 38.4187 41.7584 38.9935 41.629L38.9925 40.4417L38.068 40.4414C38.0699 40.0959 38.069 39.7508 38.0657 39.4056L39.8745 39.4069L40.3547 39.4084L40.3596 42.4652C38.9765 42.8771 37.133 43.0582 35.9552 42.1011C34.7091 41.0754 34.7013 38.9662 35.7704 37.831C36.4191 37.1422 37.325 36.906 38.2672 36.8546Z" fill="#1F262E"/>
<path fill-rule="evenodd" clip-rule="evenodd" d="M60.3157 36.8849C61.126 36.8029 62.361 36.8534 63.0009 37.3582C63.7828 37.9751 63.8057 39.2585 63.1491 39.9641C62.6639 40.4855 61.9413 40.6553 61.2297 40.6663C61.0364 40.6697 60.8227 40.6489 60.6376 40.6599C60.5725 40.7367 60.5941 40.7713 60.5914 40.8869V42.7388C60.1253 42.7351 59.6587 42.7351 59.1926 42.7394C59.1873 40.8389 59.1674 38.8778 59.1991 36.9804C59.5707 36.9439 59.9431 36.9121 60.3157 36.8849ZM61.7545 39.5072C62.6673 38.8913 62.1703 37.6998 60.9333 37.8638C60.8179 37.8708 60.6962 37.8629 60.6105 37.9247C60.5644 38.1542 60.5925 39.3261 60.5948 39.6214C61.0577 39.6495 61.3187 39.6795 61.7545 39.5072Z" fill="#1F262E"/>
<path d="M53.0929 36.9241L54.5023 36.9228L54.499 39.2581C54.4984 40.065 54.2985 41.677 55.5269 41.7379C56.9042 41.8064 56.6772 40.1125 56.6775 39.2566L56.6794 36.9238C57.1414 36.9192 57.6135 36.925 58.0764 36.9259L58.08 39.4705C58.0826 40.3876 58.13 41.5656 57.3903 42.2109C56.1148 43.3238 53.4858 42.9704 53.1914 41.1424C53.0717 40.3989 53.089 39.9078 53.0896 39.1936L53.0929 36.9241Z" fill="#1F262E"/>
<path d="M81 39.6V18.45C81 13.9 84.65 11 89 11C93.1 11 96.45 14.4 96.45 18.45V23.05H90.4V18.45C90.4 17.3 89.4 17.1 88.45 17.1C87.7 17.1 87.05 17.75 87.05 18.45V39.6C87.05 40.75 88.05 40.95 89 40.95C89.75 40.95 90.4 40.3 90.4 39.6V34.9H96.45V39.6C96.45 44.15 92.8 47 88.45 47C84.35 47 81 43.65 81 39.6Z" fill="#1F262E"/>
<path d="M104.982 46.5H98.9824V11.5H104.982V25.95H108.232V11.5H114.232V46.5H108.232V31.95H104.982V46.5Z" fill="#1F262E"/>
<path d="M117.355 39.6V18.45C117.355 13.9 121.005 11 125.355 11C129.455 11 132.805 14.4 132.805 18.45V23.05H126.755V18.45C126.755 17.3 125.755 17.1 124.805 17.1C124.055 17.1 123.405 17.75 123.405 18.45V39.6C123.405 40.75 124.405 40.95 125.355 40.95C126.105 40.95 126.755 40.3 126.755 39.6V34.9H132.805V39.6C132.805 44.15 129.155 47 124.805 47C120.705 47 117.355 43.65 117.355 39.6Z" fill="#1F262E"/>
<path d="M141.288 46.5H135.288V11.5H148.888V17.5H141.288V46.5Z" fill="#1F262E"/>
<path d="M156.878 46.5H150.878V11.5H158.478C162.728 11.5 166.228 15 166.228 19.25V24.25C166.228 28.5 162.728 32 158.478 32H156.878V46.5ZM156.878 17.5V26H158.478C159.378 26 160.228 25.2 160.228 24.25V19.25C160.228 18.3 159.378 17.5 158.478 17.5H156.878Z" fill="#1F262E"/>
<path d="M166.7 11.5H172.8L175.65 23.3L178.5 11.5H184.7L178.35 37.5C176.85 43.7 173.8 46.55 167.35 46.75L167.1 40.75C171.85 40.75 172.2 37.95 173.05 34.1L166.7 11.5Z" fill="#1F262E"/>
<path d="M186.208 46.5V11.5H201.558V46.5H195.558V17.5H192.208V46.5H186.208Z" fill="#1F262E"/>
<path d="M204.581 46.5V11.5H219.931V46.5H213.931V17.5H210.581V46.5H204.581Z" fill="#1F262E"/>
</svg>
