<svg width="174" height="41" viewBox="0 0 174 41" fill="none" xmlns="http://www.w3.org/2000/svg">
<path d="M64.0838 31.1745V14.5245C64.0838 10.9426 66.9715 8.65957 70.413 8.65957C73.6568 8.65957 76.3072 11.3362 76.3072 14.5245V18.1457H71.5207V14.5245C71.5207 13.6191 70.7295 13.4617 69.9779 13.4617C69.3845 13.4617 68.8703 13.9734 68.8703 14.5245V31.1745C68.8703 32.0798 69.6614 32.2372 70.413 32.2372C71.0064 32.2372 71.5207 31.7255 71.5207 31.1745V27.4745H76.3072V31.1745C76.3072 34.7564 73.4194 37 69.9779 37C66.7342 37 64.0838 34.3628 64.0838 31.1745Z" fill="#1F262E"/>
<path d="M83.0577 36.6064H78.3107V9.05319H83.0577V20.4287H85.6289V9.05319H90.3759V36.6064H85.6289V25.1521H83.0577V36.6064Z" fill="#1F262E"/>
<path d="M92.8467 31.1745V14.5245C92.8467 10.9426 95.7344 8.65957 99.1759 8.65957C102.42 8.65957 105.07 11.3362 105.07 14.5245V18.1457H100.284V14.5245C100.284 13.6191 99.4924 13.4617 98.7408 13.4617C98.1474 13.4617 97.6332 13.9734 97.6332 14.5245V31.1745C97.6332 32.0798 98.4243 32.2372 99.1759 32.2372C99.7693 32.2372 100.284 31.7255 100.284 31.1745V27.4745H105.07V31.1745C105.07 34.7564 102.182 37 98.7408 37C95.4971 37 92.8467 34.3628 92.8467 31.1745Z" fill="#1F262E"/>
<path d="M111.781 36.6064H107.034V9.05319H117.794V13.7766H111.781V36.6064Z" fill="#1F262E"/>
<path d="M124.115 36.6064H119.368V9.05319H125.381C128.743 9.05319 131.512 11.8085 131.512 15.1543V19.0904C131.512 22.4362 128.743 25.1915 125.381 25.1915H124.115V36.6064ZM124.115 13.7766V20.4681H125.381C126.093 20.4681 126.765 19.8383 126.765 19.0904V15.1543C126.765 14.4064 126.093 13.7766 125.381 13.7766H124.115Z" fill="#1F262E"/>
<path d="M131.886 9.05319H136.712L138.967 18.3426L141.222 9.05319H146.127L141.103 29.5213C139.916 34.4021 137.503 36.6457 132.4 36.8032L132.202 32.0798C135.96 32.0798 136.237 29.8755 136.91 26.8447L131.886 9.05319Z" fill="#1F262E"/>
<path d="M147.32 36.6064V9.05319H159.464V36.6064H154.717V13.7766H152.067V36.6064H147.32Z" fill="#1F262E"/>
<path d="M161.856 36.6064V9.05319H174V36.6064H169.253V13.7766H166.603V36.6064H161.856Z" fill="#1F262E"/>
<path d="M19.2686 0H19.3438C19.7469 0.248401 20.4433 0.592674 20.8867 0.83157L23.8722 2.44014C23.4596 3.1899 22.8599 4.11948 22.4069 4.86307L19.5868 9.48332L10.8389 23.7814C8.8329 23.7578 6.71897 23.7683 4.71182 23.782L13.241 9.84436C15.2405 6.57615 17.2338 3.24446 19.2686 0Z" fill="#1F262E"/>
<path d="M48.3065 14.4497C49.8248 15.2651 51.5248 16.1553 53.0076 17.0073V17.0706C52.7777 17.4049 52.5228 17.8608 52.3061 18.2151L46.6596 27.4366L40.3409 27.4342C41.1929 26.0026 42.1014 24.5609 42.9765 23.1376L48.3065 14.4497Z" fill="#1F262E"/>
<path d="M2.79702 25.9508C4.43036 24.9827 6.59522 24.8256 8.45392 25.2067C8.77398 25.2725 9.17495 25.3869 9.4644 25.5268C9.30683 26.2098 9.1468 26.9736 8.96656 27.6445C6.16599 26.6219 3.20058 27.3557 2.85098 30.5115C2.66708 32.1717 3.22626 33.9889 5.06894 34.642C6.24903 35.0469 7.79621 34.9602 8.94154 34.4683L8.96717 34.4572C9.1049 35.0912 9.25426 35.9252 9.35686 36.5705C8.63782 36.8639 8.5331 36.8191 7.85285 37H4.81756C3.86531 36.7849 3.26481 36.6237 2.43825 36.095C1.25136 35.3355 0.537964 34.2069 0.198196 32.9177C0.0977341 32.5366 0.0742789 32.1558 0 31.7696V30.5221L0.00732345 30.4934C0.103085 30.109 0.129636 29.7228 0.236316 29.3247C0.607538 27.9391 1.49674 26.7212 2.79702 25.9508Z" fill="#1F262E"/>
<path d="M27.8574 37C27.5021 36.9181 27.1239 36.8384 26.781 36.7247C25.5942 36.3383 24.5917 35.5756 23.9491 34.5699C22.9843 33.0774 22.831 31.0516 23.2723 29.3779C23.6431 27.9718 24.5557 26.6725 25.9041 25.9079C27.5903 24.9516 29.7629 24.8211 31.6531 25.2436C31.891 25.2968 32.2852 25.4197 32.4979 25.5235C32.4022 26.0592 32.1596 27.1179 32.0095 27.6452C30.689 27.1598 29.3563 27.0295 28.0039 27.5248C25.1421 28.5731 25.1274 33.5857 28.0174 34.6143C29.3421 35.0876 30.6965 34.9301 32.0033 34.4599C32.1454 35.1447 32.2777 35.8748 32.4037 36.5647C31.6953 36.8757 31.5325 36.814 30.8658 37H27.8574Z" fill="#1F262E"/>
<path d="M23.5644 6.52325L30.7449 10.4001C30.3994 11.0313 29.852 11.8665 29.4609 12.4975L24.1178 21.2216C23.6101 22.0466 23.0716 22.9751 22.5435 23.7805L20.2296 23.7786L13.0068 23.7805C13.1828 23.4236 13.6533 22.7029 13.8787 22.3376L21.0884 10.5631L22.6955 7.94946C22.9738 7.49777 23.3133 6.98057 23.5644 6.52325Z" fill="#1F262E"/>
<path d="M32.3789 11.2661L38.6135 14.6325C38.0992 15.4277 37.5839 16.2976 37.09 17.1064L34.5362 21.2725C34.0328 22.1125 33.5219 22.9486 33.0034 23.7806C32.3054 23.7733 31.5962 23.7789 30.8974 23.7785L24.7071 23.7798C24.9935 23.2693 25.369 22.6939 25.6812 22.1887L32.3789 11.2661Z" fill="#1F262E"/>
<path d="M18.7674 25.2113C19.587 25.194 20.4943 25.2 21.3146 25.2106L21.3132 36.9058L18.384 36.9063L16.3295 33.3812C15.8644 32.5853 15.3744 31.7653 14.9374 30.9571C14.4739 30.0863 14.0342 29.2049 13.6186 28.3134C13.5623 29.099 13.6616 30.2554 13.6693 31.0831L13.6694 36.9039L11.1263 36.9051L11.1266 25.2106L11.4525 25.2089C12.4307 25.2036 13.409 25.2036 14.3873 25.2089C15.479 26.984 16.5426 28.8036 17.5811 30.6067C17.9792 31.2978 18.3109 32.0881 18.648 32.8098C18.7436 33.0143 18.8207 33.22 18.9369 33.4173C18.8735 32.1963 18.7775 30.9906 18.7705 29.7664C18.7619 28.2491 18.7662 26.7286 18.7674 25.2113Z" fill="#1F262E"/>
<path d="M8.13066 10.5279C8.3173 10.6078 8.67528 10.8133 8.86226 10.9144L10.4777 11.7962C10.2334 12.2338 9.91469 12.7294 9.65009 13.1624L5.55014 19.8582C5.01998 20.7272 4.4926 21.6263 3.94477 22.4831C3.1913 22.0389 2.35022 21.6289 1.58002 21.1871C1.80715 20.8518 2.07561 20.3797 2.29142 20.0271L3.5799 17.9359L8.13066 10.5279Z" fill="#1F262E"/>
<path d="M40.2014 15.4815C41.6265 16.2884 43.1442 17.0398 44.5556 17.8634C43.4375 19.7181 42.2619 21.5732 41.1588 23.4296C39.7137 22.6376 38.2286 21.8519 36.7965 21.0471C37.2225 20.2645 37.8665 19.2727 38.3451 18.5034L40.2014 15.4815Z" fill="#1F262E"/>
<path d="M33.386 35.2608L50.146 35.2613C50.1426 35.7113 50.1439 36.1612 50.1493 36.6112C49.8822 36.6428 48.8423 36.6208 48.5304 36.6208L33.3852 36.624L33.386 35.2608Z" fill="#1F262E"/>
<path fill-rule="evenodd" clip-rule="evenodd" d="M38.9383 28.9886C40.3228 28.9318 41.2615 29.8257 41.3524 31.0868C41.452 32.4701 40.7196 33.61 39.1516 33.7131C36.07 33.8959 35.8047 29.1808 38.9383 28.9886ZM40.1025 30.7021C39.9262 30.1167 39.5119 29.7742 38.8415 29.8269C37.8733 30.0707 37.7493 31.2091 37.9656 31.9792C38.1292 32.5617 38.5827 32.9285 39.2489 32.8577C40.1895 32.5908 40.3336 31.4695 40.1025 30.7021Z" fill="#1F262E"/>
<path d="M37.5044 22.8011C37.6279 22.8535 37.7718 22.9417 37.8919 23.008C38.7703 23.4934 39.6599 23.9647 40.5347 24.4554C39.9169 25.432 39.3113 26.4494 38.7066 27.4361L34.6767 27.4347C34.934 26.9572 35.3287 26.3562 35.6217 25.8771L37.5044 22.8011Z" fill="#1F262E"/>
<path fill-rule="evenodd" clip-rule="evenodd" d="M33.6419 29.0368C34.4365 28.9937 35.7105 28.9619 36.0892 29.7522C36.4326 30.4686 36.1018 31.1337 35.3934 31.4871C35.9546 31.8376 35.9952 32.2902 36.1627 32.8596C36.2406 33.1241 36.3254 33.3836 36.4163 33.6445C36.0317 33.649 35.6339 33.6449 35.2485 33.6452C35.1638 33.4604 35.1095 33.2785 35.0477 33.0866C35.0024 32.9037 34.9493 32.7048 34.9055 32.5239C34.7526 31.893 34.4593 31.8472 33.8462 31.8388L33.8431 33.6435C33.4781 33.6493 33.0997 33.644 32.7337 33.6433C32.7141 32.1544 32.7296 30.6052 32.7389 29.1136C33.0392 29.0818 33.3402 29.0561 33.6419 29.0368ZM35.102 30.3354C35.0401 29.725 34.3097 29.7768 33.8438 29.8035C33.8446 30.2198 33.8409 30.6454 33.8482 31.061C34.2411 31.0694 34.5854 31.1089 34.9086 30.8747C35.0662 30.6955 35.126 30.5722 35.102 30.3354Z" fill="#1F262E"/>
<path d="M30.2754 29.0132C30.7568 28.9816 31.3299 29.0734 31.7737 29.2449C31.6935 29.5275 31.6213 29.8122 31.5574 30.0984C30.7558 29.8081 29.6496 29.7084 29.1063 30.4809C28.6616 31.1132 28.7905 32.2215 29.5188 32.6363C29.926 32.8683 30.3952 32.8736 30.85 32.7717L30.8492 31.8371L30.1178 31.8369C30.1193 31.5649 30.1185 31.2932 30.116 31.0215L31.547 31.0224L31.927 31.0236L31.9308 33.4301C30.8365 33.7543 29.378 33.8969 28.4463 33.1434C27.4604 32.336 27.4542 30.6755 28.3 29.7819C28.8133 29.2396 29.53 29.0537 30.2754 29.0132Z" fill="#1F262E"/>
<path fill-rule="evenodd" clip-rule="evenodd" d="M47.7192 29.0371C48.3603 28.9725 49.3374 29.0122 49.8436 29.4097C50.4622 29.8953 50.4804 30.9056 49.9609 31.4611C49.5771 31.8715 49.0053 32.0052 48.4424 32.0139C48.2894 32.0166 48.1204 32.0002 47.9739 32.0088C47.9224 32.0693 47.9395 32.0965 47.9374 32.1876V33.6454C47.5686 33.6425 47.1995 33.6425 46.8307 33.6459C46.8265 32.1498 46.8107 30.6059 46.8358 29.1122C47.1298 29.0835 47.4244 29.0585 47.7192 29.0371ZM48.8576 31.1014C49.5797 30.6165 49.1865 29.6785 48.2079 29.8076C48.1165 29.8132 48.0203 29.8069 47.9525 29.8556C47.916 30.0363 47.9382 30.9588 47.94 31.1913C48.3062 31.2134 48.5128 31.237 48.8576 31.1014Z" fill="#1F262E"/>
<path d="M42.0049 29.0679L43.1199 29.0669L43.1173 30.9053C43.1168 31.5406 42.9586 32.8095 43.9305 32.8575C45.0202 32.9114 44.8406 31.5779 44.8408 30.9041L44.8424 29.0676C45.2078 29.064 45.5813 29.0686 45.9476 29.0693L45.9504 31.0725C45.9525 31.7945 45.99 32.7219 45.4048 33.2299C44.3956 34.106 42.3157 33.8278 42.0828 32.3887C41.9881 31.8034 42.0018 31.4167 42.0023 30.8545L42.0049 29.0679Z" fill="#1F262E"/>
</svg>
