<svg width="18" height="19" viewBox="0 0 18 19" fill="none" xmlns="http://www.w3.org/2000/svg">
<path fill-rule="evenodd" clip-rule="evenodd" d="M9.19337 17.9486C7.4269 17.9486 6.60599 17.6896 5.17907 16.6536C4.27649 17.8191 1.41835 18.73 1.29369 17.1716C1.29369 16.0018 1.03581 15.0133 0.743545 13.9342C0.395418 12.6046 0 11.124 0 8.97864C0 3.85477 4.18624 0 9.14611 0C14.1103 0 17.9999 4.0447 17.9999 9.02612C18.0166 13.9305 14.0765 17.9225 9.19337 17.9486ZM9.26645 4.42888C6.85099 4.3037 4.96846 5.98288 4.55156 8.61604C4.20772 10.796 4.81804 13.4507 5.33809 13.5888C5.58737 13.6493 6.21488 13.1399 6.60599 12.7471C7.25273 13.1958 8.00585 13.4653 8.78938 13.5284C11.2922 13.6493 13.4308 11.7356 13.5988 9.22471C13.6966 6.70844 11.7696 4.5772 9.26645 4.4332V4.42888Z" fill="url(#paint0_linear_13652_754)"/>
<path fill-rule="evenodd" clip-rule="evenodd" d="M9.19337 17.9486C7.4269 17.9486 6.60599 17.6896 5.17907 16.6536C4.27649 17.8191 1.41835 18.73 1.29369 17.1716C1.29369 16.0018 1.03581 15.0133 0.743545 13.9342C0.395418 12.6046 0 11.124 0 8.97864C0 3.85477 4.18624 0 9.14611 0C14.1103 0 17.9999 4.0447 17.9999 9.02612C18.0166 13.9305 14.0765 17.9225 9.19337 17.9486ZM9.26645 4.42888C6.85099 4.3037 4.96846 5.98288 4.55156 8.61604C4.20772 10.796 4.81804 13.4507 5.33809 13.5888C5.58737 13.6493 6.21488 13.1399 6.60599 12.7471C7.25273 13.1958 8.00585 13.4653 8.78938 13.5284C11.2922 13.6493 13.4308 11.7356 13.5988 9.22471C13.6966 6.70844 11.7696 4.5772 9.26645 4.4332V4.42888Z" fill="url(#paint1_radial_13652_754)"/>
<defs>
<linearGradient id="paint0_linear_13652_754" x1="0" y1="18" x2="18" y2="0" gradientUnits="userSpaceOnUse">
<stop offset="0.537142" stop-color="#0F0842"/>
<stop offset="0.910578" stop-color="#EC133B"/>
</linearGradient>
<radialGradient id="paint1_radial_13652_754" cx="0" cy="0" r="1" gradientUnits="userSpaceOnUse" gradientTransform="translate(-5.28553e-07 17.7353) rotate(-45) scale(25.4558)">
<stop offset="0.128594" stop-color="#44CCFF"/>
<stop offset="0.5" stop-color="#4A4DDD"/>
<stop offset="0.8" stop-color="#9933DD"/>
</radialGradient>
</defs>
</svg>
